0.16m3min_grf.mot
version=1
nRows=17
nColumns 19
inDegrees=yes
endheader
time	1_ground_force_vx	1_ground_force_vy	1_ground_force_vz	1_ground_force_px	1_ground_force_py	1_ground_force_pz	1_ground_torque_x	1_ground_torque_y	1_ground_torque_z	2_ground_force_vx	2_ground_force_vy	2_ground_force_vz	2_ground_force_px	2_ground_force_py	2_ground_force_pz	2_ground_torque_x	2_ground_torque_y	2_ground_torque_z
            0.005000	            0.550561	            5.045186	            0.570549	           -0.171722	            0.006094	           -0.372514	            0.687307	           -0.314837	            0.245798	           -1.065470	            9.752458	            1.067681	           -0.232311	            0.006130	           -0.833667	           -2.175880	           -0.731383	            1.430979
            0.005500	            0.688593	            5.404761	            0.801033	           -0.171722	            0.006094	           -0.372514	            0.621089	           -0.305696	            0.289449	           -0.784206	            9.752134	            1.442986	           -0.232311	            0.006130	           -0.833667	           -2.232176	           -0.750424	            1.412085
            0.006000	            0.550998	            5.765266	            0.802920	           -0.171722	            0.006094	           -0.372514	            0.676952	           -0.194505	            0.208718	           -0.924153	            9.567980	            1.301604	           -0.232311	            0.006130	           -0.833667	           -2.250970	           -0.750425	            1.393243
            0.006500	            0.596922	            5.945343	            0.849435	           -0.171722	            0.006094	           -0.372514	            0.599846	           -0.203821	            0.229616	           -0.874624	            8.831388	            1.345884	           -0.232311	            0.006130	           -0.833667	           -2.250851	           -0.778917	            1.430842
            0.007000	            0.687877	            5.586206	            0.526670	           -0.171722	            0.006094	           -0.372514	            0.632598	           -0.231595	            0.252136	           -0.779739	            8.464602	            1.016034	           -0.232311	            0.006130	           -0.833667	           -2.251065	           -0.712950	            1.487629
            0.007500	            0.824756	            5.407147	            0.250420	           -0.171722	            0.006094	           -0.372514	            0.644562	           -0.277918	            0.295374	           -0.781712	            9.016879	            1.064933	           -0.232311	            0.006130	           -0.833667	           -2.194504	           -0.769463	            1.487403
            0.008000	            0.916639	            4.325570	            0.245555	           -0.171722	            0.006094	           -0.372514	            0.607411	           -0.360509	            0.167474	           -0.874686	            8.831890	            1.205100	           -0.232311	            0.006130	           -0.833667	           -2.138071	           -0.797416	            1.430727
            0.008500	            0.412951	            4.865090	            0.524261	           -0.171722	            0.006094	           -0.372514	            0.651626	           -0.277613	            0.164996	           -0.689280	            9.385012	            1.206992	           -0.232311	            0.006130	           -0.833667	           -2.232033	           -0.779118	            1.506235
            0.009000	            0.276006	            5.404681	            0.802057	           -0.171722	            0.006094	           -0.372514	            0.677253	           -0.222523	            0.234478	           -0.738186	            9.937790	            1.068198	           -0.232311	            0.006130	           -0.833667	           -2.344897	           -0.750764	            1.393283
            0.009500	            0.276267	            5.224022	            0.892996	           -0.171722	            0.006094	           -0.372514	            0.635624	           -0.166584	            0.122039	           -0.924215	            9.568482	            1.160820	           -0.232311	            0.006130	           -0.833667	           -2.194512	           -0.778579	            1.393118
            0.010000	            0.551519	            5.403948	            0.984798	           -0.171722	            0.006094	           -0.372514	            0.650585	           -0.166774	            0.208915	           -0.783021	            9.385008	            1.113175	           -0.232311	            0.006130	           -0.833667	           -2.269764	           -0.750425	            1.374401
            0.010500	            1.055028	            5.225156	            0.661782	           -0.171722	            0.006094	           -0.372514	            0.589370	           -0.258999	            0.230180	           -0.969735	            9.200016	            1.159526	           -0.232311	            0.006130	           -0.833667	           -2.213469	           -0.722200	            1.468729
            0.011000	            0.917191	            5.045453	            0.523782	           -0.171722	            0.006094	           -0.372514	            0.632751	           -0.314277	            0.167583	           -0.877262	            9.567814	            1.395441	           -0.232311	            0.006130	           -0.833667	           -2.119362	           -0.778375	            1.411936
            0.011500	            0.916867	            4.325177	            0.337267	           -0.171722	            0.006094	           -0.372514	            0.659916	           -0.397631	            0.204780	           -0.878071	            9.753134	            1.067601	           -0.232311	            0.006130	           -0.833667	           -2.307240	           -0.778852	            1.355465
            0.012000	            0.504667	            5.946309	            0.620383	           -0.171722	            0.006094	           -0.372514	            0.609636	           -0.333277	            0.225127	           -1.017209	            9.383661	            1.254059	           -0.232311	            0.006130	           -0.833667	           -2.250733	           -0.807410	            1.468442
            0.012500	            0.366895	            5.406075	            0.480838	           -0.171722	            0.006094	           -0.372514	            0.728488	           -0.194752	            0.238379	           -0.922180	            9.015702	            1.252705	           -0.232311	            0.006130	           -0.833667	           -2.232058	           -0.778917	            1.449685
            0.013000	            0.046285	            6.306555	            0.668923	           -0.171722	            0.006094	           -0.372514	            0.551106	           -0.194927	            0.225104	           -1.252705	            9.750442	            1.443185	           -0.232311	            0.006130	           -0.833667	           -2.250911	           -0.760079	            1.449760
